<svg xmlns="http://www.w3.org/2000/svg" xmlns:xlink="http://www.w3.org/1999/xlink" width="500" zoomAndPan="magnify" viewBox="0 0 375 374.999991" height="500" preserveAspectRatio="xMidYMid meet" version="1.2"><defs/><g id="a1f06ad48b"><rect x="0" width="375" y="0" height="374.999991" style="fill:#ffffff;fill-opacity:1;stroke:none;"/><rect x="0" width="375" y="0" height="374.999991" style="fill:#ffffff;fill-opacity:1;stroke:none;"/><g style="fill:#000000;fill-opacity:1;"><g transform="translate(44.600426, 309.233921)"><path style="stroke:none" d="M 14.09375 -245.046875 L 126.8125 -245.046875 C 130.082031 -245.046875 131.71875 -243.414062 131.71875 -240.15625 L 131.71875 -209.515625 C 131.71875 -206.242188 130.082031 -204.609375 126.8125 -204.609375 L 91.28125 -204.609375 L 91.28125 -4.90625 C 91.28125 -1.632812 89.644531 0 86.375 0 L 54.53125 0 C 51.257812 0 49.625 -1.632812 49.625 -4.90625 L 49.625 -204.609375 L 14.09375 -204.609375 C 10.820312 -204.609375 9.1875 -206.242188 9.1875 -209.515625 L 9.1875 -240.15625 C 9.1875 -243.414062 10.820312 -245.046875 14.09375 -245.046875 Z M 14.09375 -245.046875 "/></g></g><g style="fill:#000000;fill-opacity:1;"><g transform="translate(171.100415, 309.233921)"><path style="stroke:none" d="M 15.3125 -44.109375 L 15.3125 -200.9375 C 15.3125 -215.4375 19.085938 -226.410156 26.640625 -233.859375 C 34.203125 -241.316406 45.128906 -245.046875 59.421875 -245.046875 L 99.859375 -245.046875 C 114.148438 -245.046875 125.070312 -241.316406 132.625 -233.859375 C 140.1875 -226.410156 143.96875 -215.4375 143.96875 -200.9375 L 143.96875 -169.078125 C 143.96875 -165.816406 142.332031 -164.1875 139.0625 -164.1875 L 108.4375 -164.1875 C 105.164062 -164.1875 103.53125 -165.816406 103.53125 -169.078125 L 103.53125 -192.359375 C 103.53125 -200.523438 99.445312 -204.609375 91.28125 -204.609375 L 69.234375 -204.609375 C 61.054688 -204.609375 56.96875 -200.523438 56.96875 -192.359375 L 56.96875 -52.6875 C 56.96875 -44.519531 61.054688 -40.4375 69.234375 -40.4375 L 91.28125 -40.4375 C 99.445312 -40.4375 103.53125 -44.519531 103.53125 -52.6875 L 103.53125 -93.734375 L 87.609375 -93.734375 C 84.335938 -93.734375 82.703125 -95.363281 82.703125 -98.625 L 82.703125 -129.265625 C 82.703125 -132.535156 84.335938 -134.171875 87.609375 -134.171875 L 139.0625 -134.171875 C 142.332031 -134.171875 143.96875 -132.535156 143.96875 -129.265625 L 143.96875 -44.109375 C 143.96875 -29.816406 140.1875 -18.890625 132.625 -11.328125 C 125.070312 -3.773438 114.148438 0 99.859375 0 L 59.421875 0 C 45.128906 0 34.203125 -3.773438 26.640625 -11.328125 C 19.085938 -18.890625 15.3125 -29.816406 15.3125 -44.109375 Z M 15.3125 -44.109375 "/></g></g></g></svg>